<?xml version="1.0" encoding="iso-8859-1"?>
<!-- Generator: Adobe Illustrator 19.0.0, SVG Export Plug-In . SVG Version: 6.00 Build 0)  -->
<svg xmlns="http://www.w3.org/2000/svg" xmlns:xlink="http://www.w3.org/1999/xlink" version="1.1" id="Capa_1" x="0px" y="0px" viewBox="0 0 496 496" style="enable-background:new 0 0 496 496;" xml:space="preserve" width="512px" height="512px">
<g>
	<g>
		<path d="M457.676,352h-38.112l-73.888-36.944V352h-16c-0.424,0-0.824,0.104-1.248,0.128l-30.752-6.6V321.8    c13.944-10.936,25.08-25.288,32-41.872V280h40c35.288,0,64-28.712,64-64c0-23.784-13.072-44.544-32.384-55.576    C397.292,71.32,323.756,0,233.676,0S70.06,71.32,66.06,160.424C46.748,171.456,33.676,192.216,33.676,216    c0,35.288,28.712,64,64,64h40v-0.064c6.92,16.576,18.056,30.936,32,41.872v23.728l-70.808,15.176    c-24.568,5.256-44.272,22.52-52.72,46.184L14.324,496h438.704l-11.432-32h16.08c13.232,0,24-10.768,24-24v-64    C481.676,362.768,470.908,352,457.676,352z M417.676,216c0,26.472-21.528,48-48,48v-16h-16v16h-18.904    c1.832-7.72,2.904-15.728,2.904-24v-72h16v64h16v-64C396.148,168,417.676,189.528,417.676,216z M233.676,16    c79.064,0,144.152,60.696,151.288,137.92c-4.912-1.208-10.008-1.92-15.288-1.92h-1.096c-7.984-67.848-65.744-120-134.904-120    S106.756,84.152,98.772,152h-1.096c-5.28,0-10.376,0.712-15.288,1.92C89.524,76.696,154.612,16,233.676,16z M113.676,264v-16h-16    v16c-26.472,0-48-21.528-48-48s21.528-48,48-48v64h16v-64h16v72c0,8.272,1.072,16.28,2.904,24H113.676z M129.676,152h-14.832    c7.88-58.952,58.448-104,118.832-104s110.952,45.048,118.832,104h-14.832h-8H291.62c-19.752,0-38.32-7.688-52.288-21.656    l-5.656-5.656l-5.656,5.656C214.052,144.312,195.484,152,175.732,152h-38.056H129.676z M145.676,240v-72h30.056    c21.448,0,41.744-7.456,57.944-21.144C249.868,160.544,270.172,168,291.62,168h30.056v72c0,48.52-39.48,88-88,88    S145.676,288.52,145.676,240z M281.676,332.168v17.72c-3.456,5.664-17.992,26.112-48,26.112c-30.016,0-44.464-20.256-48-26.088    v-17.744c14.376,7.52,30.68,11.832,48,11.832S267.3,339.688,281.676,332.168z M37.028,480l24.192-67.728    c6.568-18.4,21.896-31.832,41-35.92L173.852,361c6.984,10.168,25.472,31,59.824,31s52.84-20.84,59.832-31l15.352,3.288    c-1.968,3.48-3.184,7.44-3.184,11.712v64c0,13.232,10.768,24,24,24h94.936l5.712,16H37.028z M465.676,440c0,4.416-3.592,8-8,8    h-128c-4.408,0-8-3.584-8-8v-64c0-4.416,3.592-8,8-8h32v-27.056L415.788,368h41.888c4.408,0,8,3.584,8,8V440z" fill="#006DF0"/>
	</g>
</g>
<g>
	<g>
		<rect x="337.676" y="400" width="16" height="16" fill="#006DF0"/>
	</g>
</g>
<g>
	<g>
		<rect x="385.676" y="400" width="16" height="16" fill="#006DF0"/>
	</g>
</g>
<g>
	<g>
		<rect x="433.676" y="400" width="16" height="16" fill="#006DF0"/>
	</g>
</g>
<g>
</g>
<g>
</g>
<g>
</g>
<g>
</g>
<g>
</g>
<g>
</g>
<g>
</g>
<g>
</g>
<g>
</g>
<g>
</g>
<g>
</g>
<g>
</g>
<g>
</g>
<g>
</g>
<g>
</g>
</svg>
